PathFileType  4	(X/Y/Z) C:\Users\antoi\Documents\MyRepositories\mobilecap\ResultsAnalysis
DataRate	CameraRate	NumFrames	NumMarkers	Units	OrigDataRate	OrigDataStartFrame	OrigNumFrames
100.0	100.0	5	51	mm	100.0	40	158
Frame#	Time	r_knee			r_shank_antsup			r_ankle			r_calc			r_5meta			r_toe			L_knee			L_shank_antsup			L_ankle			L_calc			L_5meta			L_toe			r_sh2			r_sh3			r_sh4			L_sh2			L_sh3			r_thigh1			r_thigh2			r_thigh3			r_thigh4			r_thigh5			L_thigh1			L_thigh2			L_thigh3			L_thigh4			r.ASIS			r.PSIS			L.ASIS			L.PSIS			C7			R_Shoulder			L_Shoulder			R_Sternum			L_Sternum			R_humerus			R_elbow_med			R_elbow_lat			R_forearm			R_wrist_radius			R_wrist_ulna			L_humerus			L_elbow_med			L_elbow_lat			L_forearm			L_wrist_radius			L_wrist_ulna			R_HJC			L_HJC			R_HJC_reg			L_HJC_reg			
		X1	Y1	Z1	X2	Y2	Z2	X3	Y3	Z3	X4	Y4	Z4	X5	Y5	Z5	X6	Y6	Z6	X7	Y7	Z7	X8	Y8	Z8	X9	Y9	Z9	X10	Y10	Z10	X11	Y11	Z11	X12	Y12	Z12	X13	Y13	Z13	X14	Y14	Z14	X15	Y15	Z15	X16	Y16	Z16	X17	Y17	Z17	X18	Y18	Z18	X19	Y19	Z19	X20	Y20	Z20	X21	Y21	Z21	X22	Y22	Z22	X23	Y23	Z23	X24	Y24	Z24	X25	Y25	Z25	X26	Y26	Z26	X27	Y27	Z27	X28	Y28	Z28	X29	Y29	Z29	X30	Y30	Z30	X31	Y31	Z31	X32	Y32	Z32	X33	Y33	Z33	X34	Y34	Z34	X35	Y35	Z35	X36	Y36	Z36	X37	Y37	Z37	X38	Y38	Z38	X39	Y39	Z39	X40	Y40	Z40	X41	Y41	Z41	X42	Y42	Z42	X43	Y43	Z43	X44	Y44	Z44	X45	Y45	Z45	X46	Y46	Z46	X47	Y47	Z47	X48	Y48	Z48	X49	Y49	Z49	X50	Y50	Z50	X51	Y51	Z51	

40	0.39000000	234.63295	544.99477	-174.60555	253.64298	414.40447	-192.73636	120.63802	99.98718	-225.41927	56.21142	70.21336	-277.59627	244.54310	34.45228	-168.28042	291.03072	58.31733	-236.41240	402.37023	583.82391	-530.39172	421.17008	472.73498	-519.03635	222.90492	181.47618	-466.06580	169.78679	180.31521	-398.85789	321.28174	59.91818	-511.73029	371.85028	75.68320	-455.04987	241.83770	304.19923	-219.55668	188.78186	409.75499	-151.15503	181.82605	293.14226	-160.93315	335.28494	501.19652	-535.07418	310.18943	382.71225	-543.64453	350.99677	771.17575	-175.87889	343.97724	660.17447	-195.45909	305.63080	629.30546	-147.00990	260.84942	762.42589	-108.36448	255.90831	649.20405	-135.11987	382.86764	842.32693	-528.70861	449.18231	721.85587	-533.07400	286.72525	788.77872	-553.20012	354.74825	667.85904	-554.69941	321.56206	1051.21538	-176.28349	113.88074	1085.01664	-253.77218	313.12862	1044.69538	-439.90137	106.49898	1082.92449	-350.89315	210.66749	1584.67640	-332.49450	280.72194	1517.22185	-148.23163	262.60741	1521.45434	-510.42730	342.72257	1496.75890	-311.75943	338.46568	1491.56012	-358.94085	289.29618	1353.23414	-67.88021	199.90449	1132.06630	-86.47205	229.38533	1158.81631	-13.35804	341.76961	1024.65630	-15.17050	390.47485	913.37641	-8.26135	363.18581	900.08465	21.75795	206.09630	1356.51379	-593.18239	72.19845	1180.75191	-535.96127	92.76995	1189.83984	-614.65569	143.95476	1028.00043	-617.55846	126.69610	909.71191	-645.23996	89.84592	921.94510	-674.03518	237.56973	971.27523	-206.35048	232.49059	955.60588	-419.10657	249.62053	971.91549	-206.64692	236.42660	968.17646	-380.23549	
41	0.40000000	237.94482	544.60769	-174.39290	256.00004	413.99840	-192.46653	120.88849	100.33134	-225.52232	56.44165	70.34650	-277.72977	244.54402	34.45764	-168.23982	291.15123	58.30250	-236.35330	413.29618	583.38659	-528.08448	436.51474	472.74397	-517.95833	254.82376	169.96629	-466.16494	202.99213	165.11434	-398.27218	359.59635	54.73636	-514.32481	409.90882	73.27239	-458.36139	243.42667	303.86521	-219.40416	191.03600	409.75077	-150.99633	183.25741	293.21389	-160.84154	348.95144	496.92872	-532.53884	330.03525	377.36337	-542.24300	357.25018	769.71265	-175.69169	349.01893	658.80172	-195.41571	310.26072	628.26309	-147.15005	267.17597	761.85129	-108.27659	260.94126	648.79616	-134.93578	393.49802	842.34242	-526.34789	460.12870	722.02555	-530.43913	297.73150	788.64628	-552.19038	366.07179	667.84137	-553.20142	330.38340	1050.37217	-175.21552	123.05344	1084.63967	-253.59312	322.98562	1043.98045	-438.96647	116.03002	1082.51115	-350.74473	220.36249	1583.96381	-335.23604	290.82843	1518.42977	-150.49795	271.54356	1519.11979	-512.62956	352.19225	1496.15548	-314.00366	348.14370	1490.65255	-361.13092	300.25746	1355.15157	-68.96821	211.16291	1133.62719	-84.98363	241.46410	1160.97976	-12.42656	354.54785	1027.41922	-14.78554	403.97682	916.47694	-7.76613	377.07058	903.20449	22.62493	213.86732	1354.13768	-593.91782	79.76469	1179.07708	-534.88103	99.36461	1187.99056	-613.79672	149.87754	1026.11752	-617.47992	132.20128	908.04598	-645.01489	94.51341	920.08031	-672.89246	246.34279	970.61388	-205.70299	242.09217	955.01981	-418.48258	258.38320	971.33225	-205.82487	245.82612	967.52703	-379.52411	
42	0.41000000	241.43160	544.17027	-174.13864	258.43353	413.51546	-192.20478	121.16525	100.64278	-225.62000	56.63140	70.49826	-277.86974	244.53607	34.46162	-168.19611	291.24016	58.26745	-236.28718	423.47982	582.24756	-525.71540	451.16433	472.40124	-516.87307	287.20182	158.72318	-466.71541	236.88969	150.33531	-398.10076	397.95692	50.16614	-517.39426	447.88835	71.62887	-462.21160	245.07424	303.46723	-219.24918	193.37289	409.68764	-150.82568	184.75606	293.23179	-160.74920	362.22440	492.07402	-530.07427	349.63384	371.73058	-541.01060	363.59803	768.16715	-175.51181	354.22178	657.36630	-195.36651	315.13410	627.21949	-147.23424	273.52998	761.16167	-108.10999	266.04712	648.26287	-134.76280	403.69346	841.65955	-524.04414	470.42880	721.39530	-527.84014	308.17766	787.99687	-551.00872	376.61746	667.17352	-551.44588	339.20813	1049.41918	-174.14256	132.22998	1084.11296	-253.50740	332.90572	1042.98493	-438.07228	125.61168	1081.89512	-350.68585	230.08516	1583.03235	-338.19915	300.90454	1519.53846	-152.94448	280.54859	1516.53902	-514.97897	361.78945	1495.42029	-316.38564	357.85823	1489.54372	-363.45714	311.14231	1356.99741	-70.19742	222.30347	1135.14302	-83.61272	253.41960	1163.10755	-11.61768	367.16521	1030.12276	-14.48677	417.31204	919.51573	-7.32071	390.81362	906.30417	23.46018	221.85840	1351.46968	-594.70283	87.67845	1177.02389	-533.85521	106.34734	1185.73460	-612.98656	156.24454	1023.87860	-617.30073	138.28073	905.99964	-644.68308	99.87518	917.82746	-671.71373	255.11399	969.82831	-205.04783	251.74482	954.17548	-417.83852	267.12882	970.59359	-204.99741	255.28963	966.62634	-378.84326	
43	0.42000000	245.05542	543.66944	-173.83175	260.92601	412.95343	-191.94951	121.45470	100.92304	-225.71282	56.77256	70.67931	-278.00738	244.51874	34.46136	-168.14699	291.29655	58.20445	-236.20332	432.97212	580.40487	-523.30651	465.13692	471.75436	-515.77577	319.95265	147.95506	-467.78870	271.32738	136.20531	-398.45220	436.25590	46.38571	-520.90442	485.67799	70.90603	-466.52755	246.78993	303.01258	-219.07896	195.78142	409.56341	-150.63803	186.31903	293.19051	-160.65078	375.11981	486.71151	-527.69861	368.99420	365.91937	-539.96955	370.01659	766.52818	-175.31826	359.53612	655.84809	-195.28896	320.16548	626.13735	-147.25948	279.85725	760.35656	-107.82472	271.22110	647.60729	-134.58005	413.47345	840.28208	-521.81168	480.09208	719.94615	-525.28746	318.08071	786.79538	-549.67260	386.37367	665.84262	-549.42330	348.05362	1048.35273	-173.07600	141.43642	1083.44174	-253.50820	342.90918	1041.70689	-437.21111	135.26158	1081.07764	-350.70701	239.83737	1581.88524	-341.38538	310.95796	1520.53488	-155.57847	289.63708	1513.70787	-517.47513	371.51115	1494.55383	-318.90850	367.59793	1488.22869	-365.92494	321.94844	1358.76111	-71.56198	233.32335	1136.61101	-82.37427	265.24359	1165.18940	-10.93766	379.61269	1032.75253	-14.26119	430.47008	922.47809	-6.91168	404.39755	909.37159	24.27280	230.08004	1348.51633	-595.55194	95.94299	1174.59935	-532.91521	113.68615	1183.10853	-612.26759	163.10640	1021.30006	-617.06339	144.94688	903.56564	-644.26594	105.95048	915.19366	-670.55168	263.90305	968.91777	-204.38330	261.46162	953.07304	-417.17195	275.87979	969.71158	-204.16415	264.82571	965.47931	-378.17834	
44	0.43000000	248.77765	543.09629	-173.47248	263.46747	412.31509	-191.69660	121.74646	101.18280	-225.80445	56.88396	70.88763	-278.14154	244.49101	34.45283	-168.09148	291.32713	58.10913	-236.09227	441.83246	577.88168	-520.88103	478.45319	470.85520	-514.66393	352.96159	137.90321	-469.43864	306.12435	122.94079	-399.43738	474.37425	43.61252	-524.79546	523.14689	71.23464	-471.18314	248.58024	302.50930	-218.88769	198.25620	409.38071	-150.43463	187.94281	293.09221	-160.54465	387.66296	480.93356	-525.45083	388.14761	360.04846	-539.14568	376.47927	764.79195	-175.08447	364.91700	654.23837	-195.15659	325.27854	624.98722	-147.22240	286.13276	759.44287	-107.41049	276.45289	646.83916	-134.36416	422.86556	838.22143	-519.66330	489.14018	717.68077	-522.79515	327.47319	785.02841	-548.20543	395.34639	663.86020	-547.15122	356.94225	1047.17403	-172.02995	150.70282	1082.62972	-253.58743	353.02613	1040.15708	-436.37576	145.00079	1080.06641	-350.79658	249.61733	1580.53375	-344.79348	320.99545	1521.40445	-158.40731	298.81987	1510.62492	-520.11814	381.33876	1493.54815	-321.57543	377.36494	1486.71102	-368.53560	332.67382	1360.43172	-73.06045	244.22992	1138.02656	-81.27903	276.93060	1167.21793	-10.39384	391.88932	1035.29643	-14.09737	443.44047	925.35184	-6.52829	417.79645	912.38771	25.06387	238.53795	1345.28674	-596.48619	104.55715	1171.81519	-532.10029	121.35727	1180.14893	-611.68279	170.49822	1018.39693	-616.81735	152.21150	900.74463	-643.79270	112.74630	912.18975	-669.46276	272.73800	967.88407	-203.71134	271.26498	951.72346	-416.48464	284.67097	968.69493	-203.33332	274.45443	964.10166	-377.52172	
